<?xml version="1.0" encoding="UTF-8"?>
<svg version="1.1" xmlns="http://www.w3.org/2000/svg" width="2000" height="2000">
<path d="M0 0 C660 0 1320 0 2000 0 C2000 660 2000 1320 2000 2000 C1340 2000 680 2000 0 2000 C0 1340 0 680 0 0 Z " fill="#E1F0DD" transform="translate(0,0)"/>
<path d="M0 0 C495 0 990 0 1500 0 C1500.103125 144.354375 1500.20625 288.70875 1500.3125 437.4375 C1500.35802002 483.04767334 1500.40354004 528.65784668 1500.45043945 575.65014648 C1500.47302246 631.26965332 1500.47302246 631.26965332 1500.47721863 657.29286194 C1500.48219125 676.69902077 1500.50374892 696.10509243 1500.53336714 715.51122681 C1500.56317797 735.31172434 1500.5741726 755.11216699 1500.56722475 774.91268611 C1500.56364493 786.67683551 1500.5735081 798.44078023 1500.60403798 810.20489163 C1500.6228566 817.98628578 1500.62330156 825.76754479 1500.6091767 833.54894843 C1500.60166082 837.97221112 1500.6017527 842.39508248 1500.62441289 846.81830227 C1500.83637064 890.84378197 1491.03317146 927.68806338 1460.5546875 960.4453125 C1432.7835975 988.2164025 1396.56980935 1000.11162564 1358.03366914 1000.13486269 C1356.04739508 1000.13287526 1354.0611211 1000.13079582 1352.07484722 1000.12863445 C1349.93702616 1000.12998212 1347.79920534 1000.13176658 1345.66138497 1000.13394669 C1339.7814836 1000.1386712 1333.90159773 1000.13717679 1328.0216956 1000.13466892 C1321.62670396 1000.1330352 1315.23171564 1000.13717721 1308.83672506 1000.14057809 C1297.62678044 1000.14590895 1286.41683964 1000.14718401 1275.20689392 1000.14612198 C1263.18063045 1000.14499696 1251.15437007 1000.14603357 1239.12810707 1000.14969444 C1238.3680638 1000.1499241 1237.60802054 1000.15015375 1236.82494565 1000.15039036 C1233.72932076 1000.15133202 1230.63369587 1000.1522877 1227.53807099 1000.15326155 C1195.25594998 1000.16340224 1162.97383071 1000.16646739 1130.69170829 1000.16705366 C1127.2177185 1000.16711841 1123.7437287 1000.16718635 1120.26973891 1000.16725707 C1118.97661165 1000.16728258 1118.97661165 1000.16728258 1117.6573606 1000.1673086 C1098.54975888 1000.16771714 1079.4421575 1000.1699073 1060.33455596 1000.17241292 C1052.46565899 1000.17344127 1044.59676201 1000.17443131 1036.72786504 1000.17542917 C1035.85841169 1000.17553975 1034.98895834 1000.17565034 1034.09315793 1000.17576428 C984.27364653 1000.1820878 934.45413535 1000.18621345 884.63462353 1000.18575573 C882.77044258 1000.18573995 880.90626164 1000.18572422 879.04208069 1000.18570852 C870.62552405 1000.18563514 862.20896741 1000.18554697 853.79241077 1000.18545464 C850.03927853 1000.18541351 846.28614629 1000.18537337 842.53301405 1000.18533332 C840.6545048 1000.18531293 838.77599555 1000.18529191 836.8974863 1000.18527026 C777.49016736 1000.18458994 718.08285438 1000.19190892 658.67553711 1000.20581055 C643.70609381 1000.20931157 628.7366505 1000.21278103 613.76720715 1000.21607494 C612.84547725 1000.21627782 611.92374734 1000.21648069 610.97408624 1000.21668971 C582.56611254 1000.22290456 554.15813933 1000.22667024 525.75016499 1000.22793293 C524.41234988 1000.22799286 524.41234988 1000.22799286 523.0475082 1000.22805399 C503.46883545 1000.22890726 483.89016274 1000.22916847 464.31148998 1000.22888362 C457.30596039 1000.22878713 450.30043079 1000.22873509 443.2949012 1000.22870489 C441.55211121 1000.22869697 439.80932121 1000.22868677 438.06653122 1000.22867426 C410.29822384 1000.22849795 382.52992157 1000.23419555 354.76161566 1000.24282808 C326.79516078 1000.25147803 298.82871297 1000.25366922 270.86225732 1000.24706676 C266.99687026 1000.24615448 263.13148319 1000.24531119 259.26609612 1000.24450874 C258.50838578 1000.24434866 257.75067544 1000.24418857 256.97000419 1000.24402363 C244.97800731 1000.24167169 232.98602266 1000.24602574 220.99402808 1000.25317993 C209.19894155 1000.26007606 197.40387449 1000.25965318 185.60878829 1000.25198779 C179.30075137 1000.24809367 172.9927578 1000.24736692 166.68472388 1000.25544515 C160.94351308 1000.2627332 155.20238169 1000.26077655 149.4611744 1000.25152128 C147.3997327 1000.24980326 145.33828475 1000.25141754 143.27684942 1000.25682249 C103.96461351 1000.35297383 68.6968984 988.80232222 40.08984375 961.11328125 C15.82186494 936.95117707 -0.14131434 902.60363695 -0.26201702 868.10481386 C-0.25688732 866.70947695 -0.2515735 865.31414071 -0.24609566 863.91880512 C-0.24757716 862.40636336 -0.24993668 860.89392226 -0.25308805 859.38148306 C-0.25919908 855.23464799 -0.25289939 851.08791166 -0.2445315 846.94108399 C-0.23765293 842.4366315 -0.24241343 837.93218884 -0.24569702 833.42773438 C-0.24985017 825.52796437 -0.24656229 817.62822455 -0.23843026 809.72845805 C-0.2262214 797.82922963 -0.22569098 785.93001946 -0.22736086 774.0307859 C-0.22984468 754.08934046 -0.22325957 734.1479082 -0.21115112 714.20646667 C-0.19480774 687.24290495 -0.19094534 660.27936576 -0.18920898 633.3157959 C-0.17870311 568.48136125 -0.15078096 503.64693037 -0.125 438.8125 C-0.08375 294.004375 -0.0425 149.19625 0 0 Z " fill="#14390F" transform="translate(250,850)"/>
<path d="M0 0 C1.31892242 -0.00014603 2.63784485 -0.00029205 3.99673462 -0.0004425 C7.5597965 -0.00072549 11.12282364 0.00508939 14.68587756 0.01213145 C18.4294229 0.01844917 22.17296932 0.01897537 25.91651917 0.02015686 C32.98151265 0.02324564 40.04649037 0.03142544 47.11147696 0.04150635 C55.16487374 0.05274434 63.21827134 0.05819717 71.27167404 0.06320179 C87.81597221 0.07361053 104.36025459 0.09116169 120.90454102 0.11352539 C120.90416399 0.86152908 120.90378696 1.60953278 120.90339851 2.38020325 C120.89625765 20.64525639 120.92239318 38.90999063 120.98481941 57.17494202 C121.01422061 66.00804779 121.03267337 74.84091463 121.0246582 83.67407227 C121.01769447 91.3799459 121.03197978 99.08544917 121.07097709 106.79123211 C121.09087427 110.86528703 121.10067721 114.93876179 121.08496475 119.0128479 C120.54620321 142.3352363 120.54620321 142.3352363 127.90454102 164.11352539 C128.4894632 165.17853271 129.07438538 166.24354004 129.67703247 167.34082031 C137.99091039 181.72572428 152.08726177 191.54818823 167.90454102 196.11352539 C169.23098633 196.55825195 169.23098633 196.55825195 170.58422852 197.01196289 C189.64149628 202.76609637 209.5795568 198.97989414 226.90454102 190.11352539 C242.61332592 181.47750651 251.96692199 168.93013766 257.90454102 152.11352539 C258.73051271 147.98335486 259.03741224 144.05690185 259.0627594 139.84927368 C259.07742044 137.99803611 259.07742044 137.99803611 259.09237766 136.1093998 C259.0982909 134.74960999 259.10411614 133.38981981 259.10986328 132.0300293 C259.11958665 130.56749892 259.12973255 129.10497129 259.14026546 127.64244652 C259.16724288 123.73527617 259.18845738 119.82809465 259.20845795 115.92088318 C259.22812293 112.25094265 259.25301217 108.58104469 259.27746582 104.91113281 C259.34589265 94.18696246 259.40595877 83.46274009 259.46704102 72.73852539 C259.61141602 48.77227539 259.75579102 24.80602539 259.90454102 0.11352539 C351.31454102 0.11352539 442.72454102 0.11352539 536.90454102 0.11352539 C537.21704102 70.86352539 537.21704102 70.86352539 537.29248047 93.15551758 C537.32906953 99.78287906 537.32906953 99.78287906 537.36955261 106.41021729 C537.38739952 109.34887273 537.39707577 112.28742975 537.4016571 115.22613525 C537.40779514 118.98748772 537.42829241 122.74851716 537.45870245 126.50974894 C537.47153037 128.52414442 537.47006246 130.53861589 537.46784687 132.55305099 C537.66163239 151.37992475 543.82450884 166.65031869 556.71704102 180.36352539 C571.5712002 194.57691692 591.02805602 199.73782352 611.07641602 199.38305664 C629.78903451 198.62271606 648.2174253 190.45416977 661.07641602 176.80883789 C672.34285987 163.55170659 676.35824162 149.56059251 676.33691406 132.48413086 C676.34603485 131.01109563 676.35645143 129.53806795 676.36804676 128.06505013 C676.39535269 124.14772053 676.4051025 120.2305382 676.41101837 116.31312561 C676.41930227 112.62680424 676.44368237 108.94065471 676.4666748 105.25439453 C676.52450158 94.49917909 676.55673311 83.74383833 676.59204102 72.98852539 C676.69516602 48.93977539 676.79829102 24.89102539 676.90454102 0.11352539 C768.31454102 0.11352539 859.72454102 0.11352539 953.90454102 0.11352539 C954.15454102 71.73852539 954.15454102 71.73852539 954.20239258 94.29174805 C954.23564307 101.00689619 954.23564307 101.00689619 954.27410889 107.72201538 C954.29100351 110.69561825 954.29697758 113.66901995 954.29608154 116.64266968 C954.29530277 120.45212165 954.31387071 124.2610462 954.34563017 128.0703609 C954.35798914 130.10599578 954.35123691 132.14172032 954.34341812 134.1773777 C954.54092304 151.74255871 960.71429621 167.38699232 972.90454102 180.11352539 C988.24961519 193.87663316 1006.96386076 200.18319902 1027.50610352 199.45727539 C1040.75374654 198.62670216 1052.5161096 194.84370255 1063.90454102 188.11352539 C1064.81848633 187.57856445 1065.73243164 187.04360352 1066.67407227 186.49243164 C1079.45258959 178.30711409 1087.74775721 164.52246657 1091.90454102 150.11352539 C1093.23607902 143.18401328 1093.07899967 136.2274205 1093.10986328 129.19189453 C1093.11945405 127.7820101 1093.12946482 126.37212847 1093.13986206 124.96224976 C1093.16678739 121.15082038 1093.18786354 117.33937877 1093.20786405 113.52790761 C1093.22980035 109.5387192 1093.25715148 105.54956793 1093.28392029 101.56040955 C1093.33374416 94.01352041 1093.37872103 86.46661053 1093.42194265 78.91968101 C1093.47140335 70.32473629 1093.5262886 61.72982885 1093.58162224 53.13492024 C1093.695284 35.46115662 1093.80215718 17.78735776 1093.90454102 0.11352539 C1111.69972243 0.04310958 1129.49486714 -0.009621 1147.29015827 -0.04191113 C1155.55481466 -0.05730964 1163.81938394 -0.07826303 1172.08398438 -0.11279297 C1179.29641653 -0.14291225 1186.50878554 -0.16210042 1193.72127885 -0.16874009 C1197.53207777 -0.17261467 1201.34269621 -0.18156942 1205.15343666 -0.20366478 C1224.68188897 -0.3124608 1243.94696379 -0.34348617 1262.59204102 6.30102539 C1263.46159424 6.60218262 1264.33114746 6.90333984 1265.22705078 7.21362305 C1301.35781976 20.11770581 1329.29651918 46.12960164 1345.81323242 80.67895508 C1380.37459502 157.78094787 1356.90454102 314.22263576 1356.90454102 350.11352539 C861.90454102 350.11352539 366.90454102 350.11352539 -143.09545898 350.11352539 C-143.09545898 79.2553939 -143.09545898 79.2553939 -99.83764648 35.84790039 C-72.14874131 9.71249815 -37.3065941 -0.11099405 0 0 Z " fill="#14390F" transform="translate(393.095458984375,349.886474609375)"/>
<path d="M0 0 C46.2 0 92.4 0 140 0 C140.16121214 36.38020555 140.16121214 36.38020555 140.1953125 51.66796875 C140.21901335 62.20857562 140.24682058 72.74905424 140.30175781 83.28955078 C140.34175564 90.96739944 140.36746352 98.64514369 140.37635398 106.32309365 C140.38154693 110.38467356 140.39366282 114.4459549 140.42292023 118.50743866 C140.45029461 122.33896762 140.45840116 126.17007817 140.45243073 130.00169563 C140.45352122 131.39960322 140.46134325 132.79752642 140.4768219 134.19534874 C140.57184526 143.22810306 139.43343895 150.63089451 136 159 C135.46430578 160.31330858 135.46430578 160.31330858 134.91778946 161.65314865 C128.30824762 177.05524819 114.93507221 187.57088139 100.0625 194.375 C85.16660951 200.28737109 67.60778747 202.89656078 52 198 C50.99839844 197.731875 49.99679687 197.46375 48.96484375 197.1875 C31.36040313 192.24590263 16.8126847 181.50631245 7.57421875 165.53515625 C2.76887673 156.33554866 -0.12943195 147.29356137 -0.12025452 136.84963989 C-0.12162918 135.63816788 -0.12300385 134.42669586 -0.12442017 133.17851257 C-0.12082489 131.86292862 -0.11722961 130.54734467 -0.11352539 129.19189453 C-0.11324309 127.78216046 -0.11340209 126.37242625 -0.1139679 124.96269226 C-0.1142542 121.14704059 -0.10838435 117.3314205 -0.10139394 113.51577616 C-0.09513272 109.52393664 -0.09455441 105.53209636 -0.09336853 101.54025269 C-0.09026337 93.98621971 -0.08206098 86.43220125 -0.07201904 78.87817466 C-0.05873992 68.66681821 -0.05335141 58.45545777 -0.04751682 48.24409485 C-0.03812055 32.16271903 -0.01819617 16.08137384 0 0 Z " fill="#E1F0DD" transform="translate(930,350)"/>
<path d="M0 0 C46.2 0 92.4 0 140 0 C140.08060607 35.45771388 140.08060607 35.45771388 140.09765625 50.34375 C140.1095123 60.61232507 140.12343199 70.88086725 140.15087891 81.14941406 C140.17086091 88.62874379 140.18372783 96.10804678 140.18817699 103.58740246 C140.19077624 107.54486282 140.19685271 111.5022467 140.21146011 115.45968246 C140.22512016 119.19098881 140.22920576 122.92218779 140.22621536 126.65351677 C140.22702066 128.66263581 140.23773795 130.67174338 140.24884033 132.68083191 C140.21192151 149.02268312 136.04832294 161.9895864 126 175 C125.58621094 175.60199219 125.17242188 176.20398438 124.74609375 176.82421875 C115.17560701 189.69487333 97.13038829 196.78938412 81.98828125 199.49609375 C61.6318694 202.35658582 42.01497801 198.04684574 25.375 185.8125 C24.235557 184.89260821 23.11204481 183.95283135 22 183 C20.55173828 181.86304688 20.55173828 181.86304688 19.07421875 180.703125 C8.95443201 172.24533555 2.14261665 157.81777747 0 145 C-0.28139292 140.2610022 -0.25340299 135.52659803 -0.22705078 130.78125 C-0.22648586 129.3515168 -0.22680481 127.92178303 -0.22793579 126.49205017 C-0.22850715 122.6310253 -0.2167882 118.77012593 -0.20278788 114.9091301 C-0.19024414 110.86659133 -0.18910715 106.82404936 -0.18673706 102.78149414 C-0.18053297 95.13542562 -0.1641367 87.48941463 -0.14403808 79.84337139 C-0.11745468 69.50485848 -0.10669778 59.16632971 -0.09503365 48.82779121 C-0.0762553 32.55181776 -0.03640251 16.27596567 0 0 Z " fill="#E1F0DD" transform="translate(1347,350)"/>
<path d="M0 0 C45.87 0 91.74 0 139 0 C139.08060607 36.29064326 139.08060607 36.29064326 139.09765625 51.5078125 C139.10951964 62.01141311 139.12345998 72.51498162 139.15087891 83.01855469 C139.17083914 90.66853024 139.18372269 98.31847972 139.18817699 105.96848059 C139.19077991 110.01753817 139.19687995 114.06652117 139.21146011 118.11555481 C139.22508566 121.93057345 139.22921263 125.74548714 139.22621536 129.5605278 C139.22676331 130.95687303 139.23071107 132.35322195 139.23841095 133.74954605 C139.33598329 152.36462779 133.42434007 166.85515928 120.8125 180.6875 C105.36541842 195.29582602 84.75446834 200.90296984 64.02734375 200.37890625 C44.35322273 199.30870158 27.87134216 190.36974403 14.3125 176.375 C9.25384685 170.5642639 5.96641172 164.06251911 3 157 C2.7387971 156.40409593 2.4775942 155.80819185 2.20847607 155.19423008 C-0.58159117 148.0332356 -0.40262249 140.97780487 -0.34057617 133.39233398 C-0.33972858 131.93289711 -0.34020762 130.47345896 -0.34190369 129.01402283 C-0.34275992 125.07655097 -0.32519496 121.1393566 -0.30418181 117.20194888 C-0.28535254 113.07801159 -0.28365967 108.95406703 -0.28010559 104.83009338 C-0.27080341 97.03173616 -0.24621453 89.23350599 -0.21605712 81.43520457 C-0.1761659 70.88962336 -0.16004346 60.3440071 -0.14255047 49.79836941 C-0.11439199 33.19881788 -0.05461038 16.5995344 0 0 Z " fill="#E1F0DD" transform="translate(514,350)"/>
<path d="M0 0 C19.8082923 13.81000661 31.17224363 35.64788443 35.82223511 58.89131165 C36.94200655 65.17365899 37.04098447 71.28973855 37.00048828 77.65698242 C37.00072935 78.89733151 37.00097042 80.13768061 37.0012188 81.41561604 C37.00023186 84.06539543 36.99574647 86.71485358 36.98458862 89.36457825 C36.96949306 93.16451631 36.96437093 96.96431729 36.96264648 100.76428223 C36.95219949 109.88323853 36.92427695 119.00216807 36.8984375 128.12109375 C36.8571875 148.51921875 36.8159375 168.91734375 36.7734375 189.93359375 C-9.4265625 189.93359375 -55.6265625 189.93359375 -103.2265625 189.93359375 C-103.2884375 170.00984375 -103.3503125 150.08609375 -103.4140625 129.55859375 C-103.44137451 123.30100098 -103.46868652 117.0434082 -103.49682617 110.59619141 C-103.51037598 102.86987305 -103.51037598 102.86987305 -103.51289368 99.23641968 C-103.51745715 96.73469434 -103.52791691 94.232975 -103.54328918 91.73129272 C-103.72916072 59.84890078 -99.71232403 32.3882564 -76.9140625 8.30859375 C-54.85477091 -12.87028266 -25.79612992 -16.07935712 0 0 Z " fill="#14390F" transform="translate(1033.2265625,160.06640625)"/>
<path d="M0 0 C17.76844972 13.28797708 30.60106513 33.46899799 34.69921875 55.44140625 C35.67022001 62.63937706 35.83567762 69.68018424 35.81274414 76.93774414 C35.81286468 78.17785216 35.81298521 79.41796019 35.8131094 80.69564724 C35.81248967 84.0246292 35.80757324 87.3535475 35.80049896 90.68251801 C35.79476832 93.81597285 35.79453391 96.94942629 35.79382324 100.08288574 C35.78859348 109.22323068 35.77463222 118.36356894 35.76171875 127.50390625 C35.74109375 147.94328125 35.72046875 168.38265625 35.69921875 189.44140625 C-10.17078125 189.44140625 -56.04078125 189.44140625 -103.30078125 189.44140625 C-103.34203125 168.91953125 -103.38328125 148.39765625 -103.42578125 127.25390625 C-103.44398926 120.79417236 -103.46219727 114.33443848 -103.48095703 107.67895508 C-103.48999023 99.73962402 -103.48999023 99.73962402 -103.4916687 96.01298523 C-103.49472304 93.4318095 -103.50095839 90.85083538 -103.51193237 88.2696991 C-103.52841042 84.34099915 -103.52858941 80.4123784 -103.52783203 76.48364258 C-103.53502825 75.35000432 -103.54222446 74.21636606 -103.54963875 73.04837513 C-103.48837885 49.12537911 -95.36604917 25.66204839 -78.30078125 8.44140625 C-70.76766353 1.54475916 -62.96384039 -4.0514804 -53.30078125 -7.55859375 C-52.55183594 -7.87441406 -51.80289062 -8.19023437 -51.03125 -8.515625 C-34.14346187 -14.81617969 -14.4460997 -9.78606754 0 0 Z " fill="#14390F" transform="translate(1450.30078125,160.55859375)"/>
<path d="M0 0 C17.76844972 13.28797708 30.60106513 33.46899799 34.69921875 55.44140625 C35.67022001 62.63937706 35.83567762 69.68018424 35.81274414 76.93774414 C35.81286468 78.17785216 35.81298521 79.41796019 35.8131094 80.69564724 C35.81248967 84.0246292 35.80757324 87.3535475 35.80049896 90.68251801 C35.79476832 93.81597285 35.79453391 96.94942629 35.79382324 100.08288574 C35.78859348 109.22323068 35.77463222 118.36356894 35.76171875 127.50390625 C35.74109375 147.94328125 35.72046875 168.38265625 35.69921875 189.44140625 C-10.17078125 189.44140625 -56.04078125 189.44140625 -103.30078125 189.44140625 C-103.34203125 168.91953125 -103.38328125 148.39765625 -103.42578125 127.25390625 C-103.44398926 120.79417236 -103.46219727 114.33443848 -103.48095703 107.67895508 C-103.48999023 99.73962402 -103.48999023 99.73962402 -103.4916687 96.01298523 C-103.49472304 93.4318095 -103.50095839 90.85083538 -103.51193237 88.2696991 C-103.52841042 84.34099915 -103.52858941 80.4123784 -103.52783203 76.48364258 C-103.53502825 75.35000432 -103.54222446 74.21636606 -103.54963875 73.04837513 C-103.48837885 49.12537911 -95.36604917 25.66204839 -78.30078125 8.44140625 C-70.76766353 1.54475916 -62.96384039 -4.0514804 -53.30078125 -7.55859375 C-52.55183594 -7.87441406 -51.80289063 -8.19023437 -51.03125 -8.515625 C-34.14346187 -14.81617969 -14.4460997 -9.78606754 0 0 Z " fill="#14390F" transform="translate(617.30078125,160.55859375)"/>
<path d="M0 0 C13.096875 -0.061875 26.19375 -0.12375 39.6875 -0.1875 C43.79791748 -0.21481201 47.90833496 -0.24212402 52.14331055 -0.27026367 C57.22619629 -0.28381348 57.22619629 -0.28381348 59.61799622 -0.28633118 C61.2616165 -0.29088879 62.9052278 -0.30133588 64.54878235 -0.31672668 C81.17038238 -0.46437433 98.16811579 1.05770584 111.4375 12.1875 C118.91983395 19.57344317 121.47515201 25.95978814 121.6875 36.375 C121.57641048 45.96697353 119.3911766 53.35138424 112.66796875 60.46875 C109.93842583 62.97340327 107.32534099 65.3373295 104 67 C104.64066406 67.29132813 105.28132813 67.58265625 105.94140625 67.8828125 C116.1433122 72.7176949 121.80851193 77.87834037 127 88 C129.74344215 96.23032645 129.40296488 108.72117476 126.375 116.8125 C120.81230231 127.80269092 111.66886914 132.97883019 100.3125 136.8125 C92.59199973 139.33164951 85.36667183 140.1506634 77.31079102 140.11352539 C76.4574993 140.11364593 75.60420759 140.11376646 74.72505856 140.11389065 C71.9846472 140.11314898 69.24430531 140.10555497 66.50390625 140.09765625 C64.80334506 140.09618452 63.10278341 140.09516523 61.40222168 140.09460449 C55.12230751 140.08937841 48.84240306 140.07541714 42.5625 140.0625 C28.516875 140.041875 14.47125 140.02125 0 140 C0 93.8 0 47.6 0 0 Z " fill="#E0EFDC" transform="translate(1026,1250)"/>
<path d="M0 0 C27 0 27 0 33.1953125 6.015625 C34.50091553 8.09275818 34.50091553 8.09275818 35.26464844 9.95483398 C35.71994934 11.00391434 35.71994934 11.00391434 36.18444824 12.07418823 C36.49483032 12.79220612 36.8052124 13.510224 37.125 14.25 C37.85882676 15.71931628 38.60418681 17.18292301 39.36035156 18.64086914 C40.89571868 21.6217381 42.37991605 24.62035803 43.83105469 27.64306641 C46.72511151 33.57684529 50.17646126 39.13903406 53.68057251 44.72653198 C55.44361691 47.54721184 57.1671564 50.39175825 58.89453125 53.234375 C59.56822754 54.34103516 60.24192383 55.44769531 60.93603516 56.58789062 C63.08287185 60.13700225 65.20735102 63.69860182 67.32421875 67.265625 C68.02309672 68.44084566 68.72198968 69.61605741 69.42089844 70.79125977 C70.73709618 73.00792161 72.04914095 75.22705617 73.35644531 77.44897461 C74.22994629 78.91862671 74.22994629 78.91862671 75.12109375 80.41796875 C75.6308374 81.28188232 76.14058105 82.1457959 76.66577148 83.03588867 C77.85545528 85.13129779 77.85545528 85.13129779 80 86 C80.27835693 85.26894043 80.55671387 84.53788086 80.84350586 83.78466797 C81.91544332 81.20360007 83.11459515 78.86676415 84.50390625 76.4453125 C84.99826172 75.58164063 85.49261719 74.71796875 86.00195312 73.828125 C86.51693359 72.93609375 87.03191406 72.0440625 87.5625 71.125 C88.05041016 70.27164062 88.53832031 69.41828125 89.04101562 68.5390625 C92.44212787 62.61651109 95.93419766 56.75170744 99.45544434 50.90020752 C102.23867669 46.27422827 105.00248999 41.63715624 107.75390625 36.9921875 C108.1494722 36.3247049 108.54503815 35.65722229 108.95259094 34.96951294 C110.56022175 32.25633102 112.1673731 29.54286724 113.77319336 26.82861328 C114.17223877 26.15427246 114.57128418 25.47993164 114.98242188 24.78515625 C115.37763031 24.11438049 115.77283875 23.44360474 116.18002319 22.75250244 C116.97577231 21.41817184 117.78467707 20.0915948 118.60684204 18.77337646 C120.56473497 15.61023257 122.2045447 12.63671283 123.42138672 9.11425781 C124.90234375 5.5078125 124.90234375 5.5078125 130 0 C138.91 0 147.82 0 157 0 C157 46.2 157 92.4 157 140 C147.1 140 137.2 140 127 140 C126.67 112.94 126.34 85.88 126 58 C117.585 72.355 117.585 72.355 109 87 C105.95292271 92.07385584 102.90274036 97.14062504 99.8125 102.1875 C98.44378451 104.43085177 97.07529065 106.67433878 95.70703125 108.91796875 C95.0730542 109.94229004 94.43907715 110.96661133 93.78588867 112.02197266 C92.61554579 113.97355742 91.49825844 115.95817772 90.44262695 117.97412109 C86.86407985 124.68307751 86.86407985 124.68307751 82.37890625 126.328125 C72.47052232 126.12529217 72.47052232 126.12529217 68.8203125 123.33203125 C66.90315463 120.66727354 65.47414278 117.93424611 64 115 C62.91291186 113.1147439 61.79401271 111.25037947 60.67480469 109.3840332 C59.39031718 107.23350508 58.13148669 105.06933823 56.875 102.90234375 C53.09712397 96.42312627 49.17396433 90.03250692 45.26147461 83.6340332 C40.4630176 75.78143925 35.73539161 67.89231936 31 60 C30.67 86.4 30.34 112.8 30 140 C20.1 140 10.2 140 0 140 C0 93.8 0 47.6 0 0 Z " fill="#E1F0DD" transform="translate(577,1250)"/>
<path d="M0 0 C0.79921875 -0.00773437 1.5984375 -0.01546875 2.421875 -0.0234375 C14.10852106 0.01438336 25.53179731 3.34493806 34.4375 11.25 C45.88768898 23.9069491 46.93569735 39.33243892 46.8203125 55.5390625 C46.81657474 57.09418555 46.81373138 58.64931099 46.81173706 60.20443726 C46.80416064 64.26502167 46.78456484 68.32545927 46.7623291 72.38598633 C46.73811006 77.27535469 46.72906111 82.16477258 46.71742249 87.05418396 C46.69813597 94.4528909 46.65977207 101.85127675 46.625 109.25 C36.065 109.25 25.505 109.25 14.625 109.25 C14.59921875 104.50625 14.5734375 99.7625 14.546875 94.875 C14.52168898 91.85801993 14.49534283 88.84113838 14.46484375 85.82421875 C14.41661316 81.04247752 14.3725296 76.26096452 14.35400391 71.47900391 C14.33878687 67.62078418 14.30425344 63.76316416 14.25669098 59.9052124 C14.24192884 58.43818392 14.23396196 56.97106979 14.23311615 55.50396729 C14.22392964 47.55476258 14.1428406 41.05284544 9.625 34.25 C4.57337759 29.32790637 -0.22413261 27.95177362 -7.1875 27.875 C-14.29303046 28.00122154 -18.76335914 29.05985498 -24.08203125 33.7578125 C-31.85594706 41.89110641 -31.83362375 51.77169118 -31.88671875 62.47265625 C-31.90359692 63.82744439 -31.92175129 65.18221717 -31.94111633 66.53697205 C-31.98828283 70.0730204 -32.01830625 73.60900646 -32.04455566 77.14526367 C-32.0745313 80.76558649 -32.12084522 84.38569952 -32.16601562 88.00585938 C-32.25318996 95.08725398 -32.31341871 102.16815214 -32.375 109.25 C-42.605 109.25 -52.835 109.25 -63.375 109.25 C-63.375 73.94 -63.375 38.63 -63.375 2.25 C-53.805 2.25 -44.235 2.25 -34.375 2.25 C-34.045 5.88 -33.715 9.51 -33.375 13.25 C-32.42625 12.363125 -31.4775 11.47625 -30.5 10.5625 C-21.64652894 2.98149138 -11.49930868 -0.11021702 0 0 Z " fill="#DFEFDB" transform="translate(889.375,1280.75)"/>
<path d="M0 0 C31.02 0 62.04 0 94 0 C94 6.6 94 13.2 94 20 C93.34 20 92.68 20 92 20 C91.72615479 20.59224365 91.45230957 21.1844873 91.17016602 21.79467773 C90.04182286 23.92117965 88.86920306 25.49105363 87.27734375 27.28515625 C86.74367188 27.89230469 86.21 28.49945312 85.66015625 29.125 C85.09167969 29.764375 84.52320313 30.40375 83.9375 31.0625 C82.74749539 32.41691314 81.55869743 33.77238739 80.37109375 35.12890625 C79.79085449 35.79164551 79.21061523 36.45438477 78.61279297 37.13720703 C76.52337528 39.5505066 74.50538675 42.01660672 72.5 44.5 C68.92458589 48.91668802 65.23403789 53.21783171 61.5 57.5 C56.93301672 62.73752979 52.45915037 68.02681943 48.09765625 73.4375 C45.45192263 76.66953213 42.71824721 79.82871159 40 83 C58.15 83.33 76.3 83.66 95 84 C95 91.92 95 99.84 95 108 C63.32 108 31.64 108 -1 108 C-1 87.39575748 -1 87.39575748 6.24804688 79.53686523 C6.75400391 79.06966064 7.25996094 78.60245605 7.78125 78.12109375 C10.58805501 75.43807015 13.03224131 72.61843501 15.4375 69.5625 C19.03636198 65.12760474 22.74735888 60.80435749 26.5 56.5 C30.27136287 52.17353068 34.00274987 47.82816056 37.625 43.375 C42.66653314 37.18111643 47.84130087 31.09664443 53 25 C35.51 24.67 18.02 24.34 0 24 C0 16.08 0 8.16 0 0 Z " fill="#DFEEDB" transform="translate(1339,1282)"/>
<path d="M0 0 C30.69 0 61.38 0 93 0 C93 20 93 20 89.0625 25.5625 C87.38832928 27.05673649 85.70065664 28.53597907 84 30 C82.52614701 31.71949516 81.08906542 33.47109005 79.6875 35.25 C76.23157967 39.51731033 72.70622101 43.71311775 69.125 47.875 C64.30576583 53.47579354 59.51599505 59.09994309 54.75 64.74609375 C52.8180444 67.03470734 50.87966309 69.31769901 48.9375 71.59765625 C48.43549072 72.18796631 47.93348145 72.77827637 47.41625977 73.38647461 C46.45444338 74.517248 45.49145213 75.64702348 44.52709961 76.77563477 C42.53400769 79.12173571 40.7105118 81.4342323 39 84 C57.48 84 75.96 84 95 84 C95 91.92 95 99.84 95 108 C63.32 108 31.64 108 -1 108 C-1 88 -1 88 2.9375 82.4375 C4.61167072 80.94326351 6.29934336 79.46402093 8 78 C9.47385299 76.28050484 10.91093458 74.52890995 12.3125 72.75 C15.76842033 68.48268967 19.29377899 64.28688225 22.875 60.125 C27.69423417 54.52420646 32.48400495 48.90005691 37.25 43.25390625 C39.1819556 40.96529266 41.12033691 38.68230099 43.0625 36.40234375 C43.56450928 35.81203369 44.06651855 35.22172363 44.58374023 34.61352539 C45.54555662 33.482752 46.50854787 32.35297652 47.47290039 31.22436523 C49.46599231 28.87826429 51.2894882 26.5657677 53 24 C35.51 24 18.02 24 0 24 C0 16.08 0 8.16 0 0 Z " fill="#DFEFDB" transform="translate(1231,1282)"/>
<path d="M0 0 C10.56 0 21.12 0 32 0 C32 35.64 32 71.28 32 108 C21.44 108 10.88 108 0 108 C0 72.36 0 36.72 0 0 Z " fill="#DCECD8" transform="translate(765,1282)"/>
<path d="M0 0 C10.23 0 20.46 0 31 0 C31 35.64 31 71.28 31 108 C20.77 108 10.54 108 0 108 C0 72.36 0 36.72 0 0 Z " fill="#E1F0DD" transform="translate(1177,1282)"/>
<path d="M0 0 C10.23 0 20.46 0 31 0 C31 35.64 31 71.28 31 108 C20.77 108 10.54 108 0 108 C0 72.36 0 36.72 0 0 Z " fill="#E1F0DD" transform="translate(964,1282)"/>
<path d="M0 0 C6.04699112 -0.06929913 12.09257494 -0.12890299 18.13964844 -0.16479492 C20.19177957 -0.17977516 22.24387927 -0.20016646 24.29589844 -0.22631836 C50.00925237 -0.54554452 50.00925237 -0.54554452 59.0625 4.8125 C63.12511798 9.39932675 64.65809739 13.62492993 64.40234375 19.69140625 C63.6715397 23.88466056 61.971712 26.96652031 59 30 C53.24887646 33.59835216 47.05330706 35.13254453 40.30151367 35.11352539 C38.9506794 35.11341209 38.9506794 35.11341209 37.57255554 35.11329651 C36.13478508 35.10555458 36.13478508 35.10555458 34.66796875 35.09765625 C33.18034782 35.09553383 33.18034782 35.09553383 31.66267395 35.09336853 C28.50425157 35.08778418 25.34590085 35.07523452 22.1875 35.0625 C20.04231873 35.05748298 17.89713635 35.05292042 15.75195312 35.04882812 C10.50125247 35.03867203 5.25070616 35.01909348 0 35 C0 23.45 0 11.9 0 0 Z " fill="#183C13" transform="translate(1058,1331)"/>
<path d="M0 0 C5.81745756 -0.09221861 11.63234296 -0.17173837 17.44995117 -0.21972656 C19.4256249 -0.23974646 21.40124009 -0.26697092 23.37670898 -0.30175781 C26.2291515 -0.35070207 29.08080549 -0.37306525 31.93359375 -0.390625 C32.80584091 -0.41127014 33.67808807 -0.43191528 34.57676697 -0.45318604 C40.74927474 -0.4554056 45.67633813 0.79944932 51 4 C55.21816477 8.42907301 56.44403393 11.55249431 56.328125 17.55078125 C55.73774844 21.9575206 54.00759277 24.79015212 51 28 C42.18712474 34.17565185 30.06120772 32.4347601 19.875 32.25 C17.94533102 32.22990603 16.01564185 32.21166039 14.0859375 32.1953125 C9.38971364 32.15496693 4.69632738 32.07663998 0 32 C0 21.44 0 10.88 0 0 Z " fill="#153910" transform="translate(1059,1275)"/>
<path d="M0 0 C4.92765001 1.92705122 8.00072426 4.60707019 11.0625 8.875 C12.68257 14.27523333 12.49268651 18.31906957 10.9375 23.625 C8.09485689 28.57670091 4.46873956 32.17708681 -1 34 C-13.00557217 34.90973901 -13.00557217 34.90973901 -18.5625 32.375 C-27.11703573 24.03981134 -27.11703573 24.03981134 -27.3125 17.25 C-27.24901678 12.34768474 -26.31705101 9.75350508 -23 6 C-15.87967721 -0.68438466 -9.44493032 -1.00477982 0 0 Z " fill="#DFEEDB" transform="translate(1200,1233)"/>
<path d="M0 0 C4.92765001 1.92705122 8.00072426 4.60707019 11.0625 8.875 C12.68257 14.27523333 12.49268651 18.31906957 10.9375 23.625 C8.09485689 28.57670091 4.46873956 32.17708681 -1 34 C-13.00557217 34.90973901 -13.00557217 34.90973901 -18.5625 32.375 C-27.11703573 24.03981134 -27.11703573 24.03981134 -27.3125 17.25 C-27.24901678 12.34768474 -26.31705101 9.75350508 -23 6 C-15.87967721 -0.68438466 -9.44493032 -1.00477982 0 0 Z " fill="#DFEEDB" transform="translate(987,1233)"/>
<path d="M0 0 C3.567554 2.19192937 6.80648225 4.44947267 8.5 8.375 C9.36088937 13.85269433 9.44849719 19.34745065 6.875 24.375 C3.64344842 28.45695989 0.42656734 30.73281089 -4.5 32.375 C-11.43547008 32.90225796 -17.47539768 33.06353203 -23.5 29.375 C-27.99192707 25.08245351 -29.65049858 21.2270805 -29.8125 15.0625 C-29.75907223 10.00021913 -28.97881166 7.22989941 -25.5 3.375 C-18.66144314 -2.79638058 -8.4820313 -3.90854597 0 0 Z " fill="#DFEFDB" transform="translate(791.5,1234.625)"/>
</svg>
