<?xml version="1.0" encoding="UTF-8"?>
<svg version="1.1" xmlns="http://www.w3.org/2000/svg" width="2000" height="2000">
<path d="M0 0 C660 0 1320 0 2000 0 C2000 660 2000 1320 2000 2000 C1340 2000 680 2000 0 2000 C0 1340 0 680 0 0 Z " fill="#FEFEFE" transform="translate(0,0)"/>
<path d="M0 0 C330 0 660 0 1000 0 C1000.061875 86.026875 1000.12375 172.05375 1000.1875 260.6875 C1000.21481201 287.85280029 1000.24212402 315.01810059 1000.27026367 343.0065918 C1000.28381348 376.17346191 1000.28381348 376.17346191 1000.28633118 391.69929504 C1000.28931044 403.25834662 1000.30222895 414.81734376 1000.32002028 426.37637824 C1000.33794098 438.17980873 1000.34449574 449.98320606 1000.34033485 461.78664963 C1000.33853237 468.18555536 1000.34133346 474.5843617 1000.35764539 480.98324907 C1000.37233487 486.78114109 1000.37291176 492.57886422 1000.36270332 498.3767643 C1000.36144146 500.46156959 1000.3651561 502.54638585 1000.37464774 504.63116992 C1000.45092308 522.44653891 999.4104228 540.32845155 993.375 557.25 C993.02872559 558.2488623 992.68245117 559.24772461 992.32568359 560.27685547 C980.04173755 594.53450009 954.60447424 621.87808644 921.875 637.625 C897.07588502 649.0117901 872.10520324 650.46296832 845.1626641 650.3792013 C841.29897692 650.37058163 837.43532042 650.37961826 833.57163483 650.38626546 C826.82010579 650.395505 820.06865147 650.39375092 813.31712341 650.38453293 C803.27743098 650.3708635 793.2377953 650.37452126 783.19809864 650.38149153 C765.26421384 650.39338629 747.33036431 650.38835707 729.39648148 650.37621326 C713.70752049 650.36566223 698.01857151 650.36113967 682.32960701 650.36250877 C681.28748657 650.3625928 680.24536612 650.36267683 679.17166627 650.36276341 C674.94108052 650.36311568 670.71049476 650.36349969 666.47990901 650.36392899 C626.8328183 650.36788994 587.1857488 650.35519412 547.53866415 650.33440243 C512.32419198 650.31602214 477.10974012 650.3102236 441.89526367 650.31567383 C439.63274586 650.31602026 437.37022805 650.31636636 435.10771023 650.31671212 C433.98915475 650.31688311 432.87059927 650.31705411 431.71814816 650.31723029 C426.08733141 650.31808385 420.45651466 650.31890763 414.8256979 650.31969929 C413.71478775 650.31985637 412.6038776 650.32001345 411.45930351 650.32017529 C382.01481232 650.32416517 352.57032309 650.31869027 323.12583309 650.310188 C319.95785827 650.30928097 316.78988344 650.30837532 313.62190861 650.30747276 C311.52045118 650.30687166 309.41899375 650.30626304 307.31753632 650.30564686 C292.67214988 650.30142677 278.02676728 650.30084666 263.38138043 650.30275235 C244.51431715 650.3051952 225.64727446 650.30112376 206.78021681 650.28554235 C196.80458546 650.2774937 186.82898841 650.27488945 176.85335502 650.2801847 C170.18930192 650.28316267 163.52527911 650.27885673 156.86123326 650.26863613 C153.06522632 650.26301295 149.26928926 650.26049925 145.47328179 650.26680271 C141.3799305 650.27351793 137.28675576 650.26472496 133.19341183 650.25447559 C132.02126233 650.25887208 130.84911282 650.26326856 129.64144364 650.26779827 C94.96615542 650.10224323 62.11506322 633.00680736 37.875 608.94140625 C10.32023306 580.68827677 -0.89538214 543.77840876 -0.60127258 504.94871521 C-0.60346761 502.75448801 -0.60786661 500.56026213 -0.61424255 498.36604309 C-0.62532097 492.40480119 -0.60558034 486.44401856 -0.58036365 480.48283486 C-0.56061652 474.60720684 -0.56497774 468.73160357 -0.56840215 462.85595388 C-0.5745742 450.92710765 -0.55830626 438.99840031 -0.52787781 427.06959534 C-0.48680783 410.9402786 -0.47734962 394.81116475 -0.47302246 378.6817627 C-0.44682551 339.93364704 -0.37701941 301.18557079 -0.3125 262.4375 C-0.209375 175.833125 -0.10625 89.22875 0 0 Z " fill="#10026B" transform="translate(500,850)"/>
<path d="M0 0 C1.34619595 0.00187273 2.69239259 0.00329257 4.03858948 0.00428772 C7.525299 0.00804577 11.01196465 0.01781576 14.49865723 0.0289917 C18.07917691 0.03935307 21.65970391 0.04381637 25.24023438 0.04882812 C32.22397598 0.05944649 39.20768899 0.07643851 46.19140625 0.09765625 C46.1994931 1.1211467 46.20757996 2.14463715 46.21591187 3.19914246 C46.29374308 12.89313761 46.38157227 22.58699876 46.47893333 32.28081799 C46.52866086 37.26327474 46.57499099 42.24571267 46.61328125 47.22827148 C46.65043395 52.04593947 46.69687083 56.8634403 46.74946976 61.68096352 C46.76785578 63.50951487 46.78302049 65.33810183 46.79475021 67.16670799 C46.94647152 90.02306371 49.96671007 110.89375641 66.86328125 127.765625 C72.4854028 132.63336584 78.06291537 135.96292101 85.19140625 138.09765625 C85.81144531 138.28714844 86.43148437 138.47664062 87.0703125 138.671875 C98.98513436 141.0636164 110.39530477 138.49525326 120.44140625 131.91015625 C132.95148448 122.3977006 140.77251099 108.38379126 144.19140625 93.09765625 C144.4471769 92.06225456 144.4471769 92.06225456 144.70811462 91.00593567 C145.34804709 87.15504662 145.36887568 83.34449454 145.39672852 79.4519043 C145.40676124 78.57902928 145.41679396 77.70615427 145.4271307 76.8068285 C145.45842629 73.99103735 145.48324991 71.17523208 145.5078125 68.359375 C145.52622419 66.61706086 145.54506131 64.87475115 145.56433105 63.13244629 C145.63267748 56.68340218 145.69279505 50.23427298 145.75390625 43.78515625 C145.89828125 29.36828125 146.04265625 14.95140625 146.19140625 0.09765625 C198.99140625 0.09765625 251.79140625 0.09765625 306.19140625 0.09765625 C306.56640625 41.34765625 306.56640625 41.34765625 306.66943359 54.30566406 C306.70940462 58.18540771 306.70940462 58.18540771 306.75186157 62.06512451 C306.76938623 63.77456532 306.78326031 65.4840462 306.7940979 67.19354248 C306.93806721 88.92619496 309.69538587 109.68310901 325.265625 126.2890625 C334.25193053 134.72853403 344.36886592 139.13840236 356.75390625 139.59765625 C369.64736335 139.1011573 379.69172598 133.67935142 388.66796875 124.58984375 C403.43104684 107.65427256 405.79339705 87.14660707 405.80078125 65.625 C405.81482597 63.93459562 405.8306154 62.24420484 405.84814453 60.55383301 C405.90022462 54.38108218 405.91892044 48.20808583 405.94140625 42.03515625 C406.02390625 28.19578125 406.10640625 14.35640625 406.19140625 0.09765625 C458.99140625 0.09765625 511.79140625 0.09765625 566.19140625 0.09765625 C566.56640625 42.41015625 566.56640625 42.41015625 566.66943359 55.7121582 C566.70939539 59.68771919 566.70939539 59.68771919 566.75186157 63.66325378 C566.7694101 65.41773911 566.78327416 67.17226389 566.7940979 68.92680359 C566.92691628 89.52684235 569.68296013 110.05718422 584.44140625 125.91015625 C594.70211744 135.27763588 605.95314518 139.89945514 619.86328125 139.50390625 C632.94628451 137.90691994 644.00980711 130.51811556 652.06640625 120.34765625 C663.65920318 103.81603853 665.79183921 85.30280192 665.80078125 65.72265625 C665.81580175 63.8173688 665.83253683 61.91209419 665.85089111 60.00683594 C665.89414304 55.04878056 665.91446896 50.09090063 665.92962646 45.13269043 C665.94935144 40.05059613 665.99130287 34.96868721 666.03125 29.88671875 C666.10609408 19.95708904 666.15666101 10.02750172 666.19140625 0.09765625 C673.90302245 0.07429799 681.61463008 0.05662316 689.32627296 0.04584408 C692.90860892 0.04066592 696.49092034 0.03366257 700.07324219 0.0222168 C703.54217132 0.011205 707.01107714 0.00534146 710.48002243 0.00277901 C712.42163615 0.00008173 714.36324073 -0.00769984 716.30484009 -0.01564026 C728.70400787 -0.01640777 740.6375064 0.46767198 752.62890625 3.78515625 C753.61898682 4.05352295 754.60906738 4.32188965 755.62915039 4.59838867 C790.56457466 14.3252615 819.76041052 36.39417063 838.28125 67.6171875 C844.17612992 78.35816503 849.10563997 89.20397459 852.19140625 101.09765625 C852.47757813 102.14179687 852.76375 103.1859375 853.05859375 104.26171875 C860.56321505 133.63695071 856.19140625 174.47727881 856.19140625 200.09765625 C526.19140625 200.09765625 196.19140625 200.09765625 -143.80859375 200.09765625 C-143.80859375 79.23952476 -143.80859375 79.23952476 -100.55078125 35.83203125 C-72.62585874 9.47385357 -37.56813293 -0.15427062 0 0 Z " fill="#10026B" transform="translate(643.80859375,499.90234375)"/>
<path d="M0 0 C10.73252809 7.09998012 17.56164659 16.64030042 22.84375 28.15625 C23.13403076 28.77121338 23.42431152 29.38617676 23.72338867 30.01977539 C28.69967638 41.48329801 28.32706579 54.24788675 28.3059082 66.51000977 C28.31026556 68.19687117 28.31545208 69.8837306 28.32139587 71.57058716 C28.33468352 76.11388926 28.33537632 80.65710767 28.33283257 85.20042539 C28.33175639 89.00747616 28.3366624 92.81451044 28.341438 96.62155765 C28.35249663 105.60733702 28.35299044 114.59307456 28.34692383 123.57885742 C28.3408795 132.82148304 28.3532151 142.0639566 28.3744939 151.30655628 C28.39215039 159.27128105 28.39810509 167.23595758 28.39485615 175.20070118 C28.39305044 179.94499065 28.39560846 184.68917149 28.40957069 189.43344307 C28.42221147 193.89464926 28.4201463 198.35561919 28.40715981 202.81682205 C28.40480846 204.44531397 28.40747644 206.07382287 28.41578293 207.7022953 C28.51033052 227.69291558 23.25155706 246.7463925 9.21875 261.65625 C-0.74866075 271.02830481 -11.85528799 275.05179339 -25.44921875 274.68359375 C-37.65062328 273.50543371 -47.42949849 267.45531063 -55.71875 258.59375 C-69.65621643 241.51450457 -72.29312702 222.81131426 -72.21166992 201.49707031 C-72.21274543 199.84475123 -72.21468809 198.19243253 -72.21742249 196.54011536 C-72.22222955 192.09203762 -72.21466826 187.64406172 -72.20446944 183.19599628 C-72.19562355 178.52240953 -72.19744762 173.84882535 -72.1978302 169.17523193 C-72.19689669 161.33441484 -72.18825357 153.49363669 -72.17456055 145.65283203 C-72.15881647 136.60446485 -72.1535634 127.55614018 -72.1542961 118.50776029 C-72.15497281 108.84341027 -72.14802749 99.1790765 -72.1388495 89.51473141 C-72.13672448 86.74184799 -72.13600919 83.96896722 -72.13561058 81.19608307 C-72.13460201 76.83262275 -72.12846357 72.46919776 -72.11844444 68.10574913 C-72.11553803 66.50986383 -72.11429028 64.91397446 -72.11487198 63.31808662 C-72.11966991 42.13199034 -68.62298585 23.46116433 -53.34375 7.5625 C-38.16868254 -6.61420776 -18.59229834 -10.05812861 0 0 Z " fill="#10026B" transform="translate(761.96875,365.65625)"/>
<path d="M0 0 C10.73252809 7.09998012 17.56164659 16.64030042 22.84375 28.15625 C23.13403076 28.77121338 23.42431152 29.38617676 23.72338867 30.01977539 C28.66306922 41.39896867 28.33066644 54.07168152 28.32177734 66.24707031 C28.32777623 67.9061157 28.33458485 69.56515832 28.34213257 71.22419739 C28.35966038 75.69344995 28.36448228 80.16262574 28.36576414 84.63190937 C28.36719371 87.43405499 28.37147841 90.23618159 28.37675858 93.03832245 C28.39521436 102.84212974 28.40343469 112.64588295 28.40185547 122.44970703 C28.40065494 131.54344732 28.42175151 140.63694995 28.4533428 149.73063016 C28.47961405 157.57653949 28.49021826 165.42237171 28.48894465 173.26832461 C28.48843825 177.93736329 28.49394168 182.60619035 28.51530075 187.27518463 C28.53486758 191.67161657 28.53468366 196.06763894 28.52026749 200.46408653 C28.518201 202.06307013 28.52274861 203.66208066 28.5349884 205.26101875 C28.63377826 219.07843394 27.04362535 233.3356644 20.40625 245.71875 C20.06779053 246.36956543 19.72933105 247.02038086 19.38061523 247.69091797 C12.47793539 260.35389428 2.05164775 269.46988477 -11.80078125 273.6484375 C-22.95860409 276.09738012 -34.0659553 274.3515325 -43.94921875 268.61328125 C-57.8286312 259.02212864 -67.80823609 244.08663775 -70.96875 227.34375 C-72.18196935 218.89360301 -72.10992062 210.46809132 -72.09814453 201.95117188 C-72.09950139 200.29944317 -72.10128292 198.64771477 -72.10345459 196.99598694 C-72.1079951 192.53117436 -72.10625331 188.066385 -72.1030755 183.60157204 C-72.10053439 178.91728276 -72.10289431 174.23299541 -72.10446167 169.54870605 C-72.10627826 161.68399704 -72.10389045 153.81929743 -72.09912109 145.95458984 C-72.09367946 136.87677046 -72.09544248 127.79897353 -72.1009475 118.72115469 C-72.10549318 110.9111288 -72.10612205 103.10110965 -72.10350883 95.29108286 C-72.10195407 90.63349954 -72.10173031 85.97592675 -72.10504532 81.31834412 C-72.10794518 76.93852632 -72.1059096 72.55873735 -72.10015106 68.17892265 C-72.09883478 66.5765888 -72.09919823 64.9742525 -72.10141373 63.37191963 C-72.12802237 42.16364648 -68.64001815 23.47888713 -53.34375 7.5625 C-38.16868254 -6.61420776 -18.59229834 -10.05812861 0 0 Z " fill="#10026B" transform="translate(1021.96875,365.65625)"/>
<path d="M0 0 C33 0 66 0 100 0 C100.061875 14.2725 100.12375 28.545 100.1875 43.25 C100.22846802 49.97745605 100.22846802 49.97745605 100.27026367 56.84082031 C100.28381348 62.37255859 100.28381348 62.37255859 100.28633118 64.97283936 C100.29089883 66.76566816 100.3013677 68.5584885 100.31672668 70.35125732 C100.40037741 80.64136293 100.33727847 90.12896328 97 100 C96.43539062 101.68802734 96.43539062 101.68802734 95.859375 103.41015625 C89.33641172 119.00555086 80.41636189 131.13310908 64.6328125 138.03515625 C54.60647689 141.56902864 43.76756848 141.1336526 33.8828125 137.390625 C19.11627181 130.26746987 9.60147814 117.58838519 3.6875 102.5625 C-0.37373795 90.02413307 -0.27358217 77.37605832 -0.1953125 64.35546875 C-0.19236405 62.70072566 -0.19032856 61.04598069 -0.18920898 59.39123535 C-0.17881459 53.32329472 -0.15089249 47.25539429 -0.125 41.1875 C-0.08375 27.595625 -0.0425 14.00375 0 0 Z " fill="#FEFEFE" transform="translate(690,500)"/>
<path d="M0 0 C33 0 66 0 100 0 C100.0825 13.839375 100.165 27.67875 100.25 41.9375 C100.28641602 46.27253662 100.32283203 50.60757324 100.36035156 55.07397461 C100.37841797 60.45617676 100.37841797 60.45617676 100.3817749 62.99293518 C100.38783102 64.72723015 100.40171494 66.46151062 100.42230225 68.19569397 C100.58927349 83.03018162 99.53556385 98.01582256 92.375 111.375 C92.03654053 112.02581543 91.69808105 112.67663086 91.34936523 113.34716797 C84.44668539 126.01014428 74.02039775 135.12613477 60.16796875 139.3046875 C49.01014591 141.75363012 37.9027947 140.0077825 28.01953125 134.26953125 C14.1401188 124.67837864 4.16051391 109.74288775 1 93 C0.18847713 87.07099273 -0.1420395 81.24702986 -0.11352539 75.26733398 C-0.11364593 74.43362557 -0.11376646 73.59991716 -0.11389065 72.74094486 C-0.11315178 70.07596614 -0.10557095 67.41105976 -0.09765625 64.74609375 C-0.09618365 63.08728062 -0.0951649 61.42846701 -0.09460449 59.76965332 C-0.08938852 53.6589284 -0.07542728 47.54821347 -0.0625 41.4375 C-0.041875 27.763125 -0.02125 14.08875 0 0 Z " fill="#FEFEFE" transform="translate(950,500)"/>
<path d="M0 0 C11.70086999 9.61061749 19.24568052 24.63560697 21.69921875 39.40234375 C22.22594864 46.41087312 22.05030069 53.45806682 21.9921875 60.48046875 C21.98776717 62.27522502 21.98471249 64.06998517 21.98303223 65.86474609 C21.96741341 72.46067162 21.92552987 79.05651392 21.88671875 85.65234375 C21.82484375 100.41984375 21.76296875 115.18734375 21.69921875 130.40234375 C-10.97078125 130.40234375 -43.64078125 130.40234375 -77.30078125 130.40234375 C-77.36265625 115.98546875 -77.42453125 101.56859375 -77.48828125 86.71484375 C-77.51559326 82.18677002 -77.54290527 77.65869629 -77.57104492 72.9934082 C-77.58459473 67.40270996 -77.58459473 67.40270996 -77.58711243 64.77360535 C-77.59167604 62.9633207 -77.60213617 61.15304435 -77.61750793 59.34281921 C-77.72897547 45.50716349 -77.24017475 32.76001951 -70.67578125 20.21484375 C-70.33023193 19.54267822 -69.98468262 18.8705127 -69.62866211 18.17797852 C-63.53056234 6.79750058 -52.92155953 -4.28782791 -40.3203125 -8.21484375 C-25.65613206 -12.00417179 -12.30084897 -8.54167611 0 0 Z " fill="#10026B" transform="translate(1287.30078125,369.59765625)"/>
<path d="M0 0 C10.4775 -0.04125 20.955 -0.0825 31.75 -0.125 C35.03420898 -0.14320801 38.31841797 -0.16141602 41.70214844 -0.18017578 C44.33788897 -0.18602315 46.97363132 -0.19111813 49.609375 -0.1953125 C50.27712952 -0.20053925 50.94488403 -0.20576599 51.63287354 -0.21115112 C66.78852202 -0.32364488 81.34305653 0.7641452 93.3359375 10.9921875 C99.69277542 17.88546744 101.59937055 24.48695889 101.34375 33.78515625 C100.44371466 42.2025322 95.97335363 48.22067642 90 54 C89.01 54.66 88.02 55.32 87 56 C87.64066406 56.3403125 88.28132813 56.680625 88.94140625 57.03125 C96.72492951 61.392807 103.80733942 66.74916521 106.5546875 75.6171875 C108.33113277 85.12272797 107.57714163 93.00197641 102.7578125 101.44140625 C96.56897436 110.44960398 86.64469104 114.5446378 76.16273499 116.5793457 C69.50049816 117.46544541 62.76291566 117.24150617 56.0546875 117.1953125 C54.61531733 117.19236526 53.17594501 117.19032902 51.73657227 117.18920898 C46.44934844 117.17880051 41.16217075 117.15087821 35.875 117.125 C24.03625 117.08375 12.1975 117.0425 0 117 C0 78.39 0 39.78 0 0 Z " fill="#FCFCFD" transform="translate(1022,1092)"/>
<path d="M0 0 C23 0 23 0 28.5859375 5.578125 C29.80813599 7.51063538 29.80813599 7.51063538 30.55908203 9.24633789 C30.85542542 9.89845245 31.1517688 10.55056702 31.45709229 11.22244263 C31.9114566 12.22608353 31.9114566 12.22608353 32.375 13.25 C33.07628794 14.61486096 33.78726669 15.97478145 34.50732422 17.32983398 C35.98712229 20.13143117 37.42357273 22.94950872 38.83398438 25.78662109 C41.88475387 31.8324549 45.45539215 37.55296572 49.03057861 43.29846191 C50.75200153 46.07312954 52.44030237 48.86778814 54.1328125 51.66015625 C58.06677841 58.12021674 62.02998483 64.56204865 66 71 C68.83031604 67.60578219 71.17211285 64.19137862 73.35546875 60.3515625 C73.97292969 59.27189209 74.59039063 58.19222168 75.2265625 57.07983398 C75.87367188 55.93973877 76.52078125 54.79964355 77.1875 53.625 C78.54341891 51.2526708 79.90260544 48.88221895 81.26171875 46.51171875 C81.91188965 45.37653809 82.56206055 44.24135742 83.23193359 43.07177734 C85.94551124 38.35730151 88.71168228 33.68542731 91.6171875 29.0859375 C93.69986969 25.68428315 95.3698916 22.14535891 97.0703125 18.5390625 C98.2548053 16.21333636 99.43970354 13.88781667 100.625 11.5625 C101.11291016 10.42804443 101.60082031 9.29358887 102.10351562 8.12475586 C103.7890625 4.94140625 103.7890625 4.94140625 109 0 C116.59 0 124.18 0 132 0 C132 38.61 132 77.22 132 117 C123.42 117 114.84 117 106 117 C105.67 94.89 105.34 72.78 105 50 C102.4425 54.3725 99.885 58.745 97.25 63.25 C91.92931749 72.33253337 86.59713416 81.40754548 81.1875 90.4375 C80.71538086 91.22737305 80.24326172 92.01724609 79.75683594 92.83105469 C78.89851506 94.25908526 78.0329299 95.68278949 77.15820312 97.10083008 C76.0798826 98.86901207 75.05890125 100.67181214 74.04296875 102.4765625 C72 105 72 105 69.1953125 105.90234375 C68.18210937 105.91394531 67.16890625 105.92554688 66.125 105.9375 C65.11695313 105.98777344 64.10890625 106.03804687 63.0703125 106.08984375 C58.11652559 104.33143847 56.55878444 100.40772981 54 96 C52.68353934 93.85209938 51.36574414 91.70501634 50.046875 89.55859375 C48.61002087 87.18764132 47.18001236 84.81258363 45.75 82.4375 C39.59664308 72.22858577 33.31872454 62.10995926 27 52 C26.67 73.45 26.34 94.9 26 117 C17.42 117 8.84 117 0 117 C0 78.39 0 39.78 0 0 Z " fill="#FAFAFC" transform="translate(647,1092)"/>
<path d="M0 0 C7.42575327 5.20048615 11.99959952 12.14359202 14.13020325 20.95631409 C15.0358035 26.54422617 14.78650245 32.22627668 14.7421875 37.87109375 C14.73845076 39.24971307 14.73560691 40.62833507 14.73361206 42.00695801 C14.72602758 45.61055009 14.70642462 49.2139773 14.6842041 52.81750488 C14.66363302 56.504616 14.65458642 60.19175412 14.64453125 63.87890625 C14.62317299 71.09513544 14.58803415 78.31119536 14.546875 85.52734375 C5.966875 85.52734375 -2.613125 85.52734375 -11.453125 85.52734375 C-11.49050781 81.55445313 -11.52789063 77.5815625 -11.56640625 73.48828125 C-11.61263171 69.63584928 -11.66386186 65.78351408 -11.71557617 61.93115234 C-11.75044502 59.25598161 -11.77684381 56.58110737 -11.79956055 53.90576172 C-11.83313767 50.05796587 -11.88545779 46.21080886 -11.94140625 42.36328125 C-11.94779617 41.16931732 -11.9541861 39.97535339 -11.96076965 38.74520874 C-12.06252894 30.70671511 -12.06252894 30.70671511 -15.453125 23.52734375 C-21.07360659 18.32839828 -25.80424215 18.18014846 -33.21484375 18.24609375 C-38.88312691 18.73839337 -41.84180434 20.82892468 -45.765625 24.96484375 C-48.59300012 29.25826523 -49.69848739 32.82848425 -49.77197266 37.96020508 C-49.79184235 39.02092728 -49.81171204 40.08164948 -49.83218384 41.17451477 C-49.84373505 42.30801865 -49.85528625 43.44152252 -49.8671875 44.609375 C-49.88655365 45.77869064 -49.9059198 46.94800629 -49.9258728 48.15275574 C-49.98557695 51.88171124 -50.03201797 55.61069776 -50.078125 59.33984375 C-50.11631315 61.87045605 -50.15536537 64.40105548 -50.1953125 66.93164062 C-50.29289466 73.13014072 -50.37253799 79.32850617 -50.453125 85.52734375 C-59.033125 85.52734375 -67.613125 85.52734375 -76.453125 85.52734375 C-76.453125 55.82734375 -76.453125 26.12734375 -76.453125 -4.47265625 C-68.203125 -4.47265625 -59.953125 -4.47265625 -51.453125 -4.47265625 C-51.123125 -1.50265625 -50.793125 1.46734375 -50.453125 4.52734375 C-49.36 3.61984375 -48.266875 2.71234375 -47.140625 1.77734375 C-33.42404509 -8.28943316 -14.51414121 -8.71310706 0 0 Z " fill="#FCFCFD" transform="translate(931.453125,1123.47265625)"/>
<path d="M0 0 C25.74 0 51.48 0 78 0 C78 18.40248227 78 18.40248227 71.41015625 25.0390625 C70.94480469 25.43867187 70.47945312 25.83828125 70 26.25 C67.21371225 28.74780847 64.88768133 31.4343295 62.5625 34.375 C59.15273092 38.60530174 55.66915796 42.75758056 52.125 46.875 C51.10935816 48.0559751 50.09373322 49.23696473 49.078125 50.41796875 C48.57216797 51.00626465 48.06621094 51.59456055 47.54492188 52.20068359 C44.97934669 55.18871916 42.42449738 58.185741 39.875 61.1875 C39.41367676 61.72810059 38.95235352 62.26870117 38.47705078 62.82568359 C36.50136253 65.15531524 34.69733619 67.45399571 33 70 C48.18 70 63.36 70 79 70 C79 76.6 79 83.2 79 90 C52.6 90 26.2 90 -1 90 C-1 72.20301313 -1 72.20301313 3.1640625 67.8203125 C3.74929688 67.28148437 4.33453125 66.74265625 4.9375 66.1875 C6.14581372 64.9426498 7.35284076 63.69654942 8.55859375 62.44921875 C9.15140137 61.86188965 9.74420898 61.27456055 10.35498047 60.66943359 C12.57888003 58.41252869 14.53657729 55.98455547 16.5 53.5 C20.56627119 48.47695911 24.7817946 43.59621121 29.04492188 38.74023438 C33.8372953 33.2589195 38.37906867 27.64780495 43 22 C28.81 21.67 14.62 21.34 0 21 C0 14.07 0 7.14 0 0 Z " fill="#FAFAFC" transform="translate(1192,1119)"/>
<path d="M0 0 C25.74 0 51.48 0 78 0 C78 17.79820757 78 17.79820757 73.93701172 22.07861328 C73.35967285 22.6095459 72.78233398 23.14047852 72.1875 23.6875 C70.98451932 24.92726305 69.78271561 26.16816913 68.58203125 27.41015625 C67.97697754 28.00973145 67.37192383 28.60930664 66.74853516 29.22705078 C64.12273154 31.88951739 61.75525643 34.74414099 59.375 37.625 C58.47892637 38.68969662 57.58179413 39.75350319 56.68359375 40.81640625 C56.24257324 41.33992676 55.80155273 41.86344727 55.34716797 42.40283203 C53.97484919 44.02981816 52.59928872 45.6540064 51.22265625 47.27734375 C50.75617676 47.8276123 50.28969727 48.37788086 49.80908203 48.94482422 C48.53817557 50.44376089 47.2671402 51.94258828 45.99609375 53.44140625 C41.64390226 58.61069758 37.32601469 63.80878237 33 69 C48.18 69.33 63.36 69.66 79 70 C79 76.6 79 83.2 79 90 C52.6 90 26.2 90 -1 90 C-1 73 -1 73 3.4375 67.125 C5.28113533 65.40530654 7.13519285 63.69671185 9 62 C10.47171051 60.27867074 11.90986244 58.52806471 13.3125 56.75 C16.94761376 52.24631923 20.695656 47.86019484 24.5 43.5 C31.19646764 35.81830047 37.63349148 27.95813565 44 20 C29.48 20 14.96 20 0 20 C0 13.4 0 6.8 0 0 Z " fill="#FCFBFD" transform="translate(1283,1119)"/>
<path d="M0 0 C8.91 0 17.82 0 27 0 C27 29.7 27 59.4 27 90 C18.09 90 9.18 90 0 90 C0 60.3 0 30.6 0 0 Z " fill="#F6F5F9" transform="translate(1147,1119)"/>
<path d="M0 0 C8.91 0 17.82 0 27 0 C27 29.7 27 59.4 27 90 C18.09 90 9.18 90 0 90 C0 60.3 0 30.6 0 0 Z " fill="#F6F5F9" transform="translate(804,1119)"/>
<path d="M0 0 C8.58 0 17.16 0 26 0 C26 29.7 26 59.4 26 90 C17.42 90 8.84 90 0 90 C0 60.3 0 30.6 0 0 Z " fill="#FCFBFD" transform="translate(970,1119)"/>
<path d="M0 0 C5.24749445 -0.06921463 10.49337804 -0.12884268 15.7409668 -0.16479492 C17.52259719 -0.17979643 19.30419119 -0.20020433 21.08569336 -0.22631836 C23.66008535 -0.26308509 26.2339853 -0.27981285 28.80859375 -0.29296875 C29.59334579 -0.30845261 30.37809784 -0.32393646 31.18663025 -0.33988953 C38.14546596 -0.341964 44.15746996 1.20166467 50.0625 4.9375 C53.11439783 9.76146754 52.7929969 14.45672068 52 20 C49.82452327 24.74649468 46.04486523 26.33552394 41.36572266 28.16210938 C33.88592757 30.02419096 26.03098867 29.40036776 18.375 29.25 C16.58986381 29.22990223 14.80470575 29.21165726 13.01953125 29.1953125 C8.6786977 29.15500764 4.34094631 29.07668011 0 29 C0 19.43 0 9.86 0 0 Z " fill="#13056D" transform="translate(1049,1160)"/>
<path d="M0 0 C4.83902614 -0.09226957 9.67495234 -0.17176613 14.51416016 -0.21972656 C16.1571695 -0.23973571 17.80010859 -0.26695213 19.44287109 -0.30175781 C21.81625788 -0.35075305 24.18869649 -0.37307504 26.5625 -0.390625 C27.64893799 -0.42159271 27.64893799 -0.42159271 28.75732422 -0.45318604 C35.44590021 -0.45607236 40.59343998 1.77393198 45.5 6.3125 C47.47248357 9.84653306 47.49126061 11.999735 47 16 C45.40256362 20.15333458 43.88913568 22.77763676 40 25 C35.27058849 26.91297115 31.01532814 27.26828856 25.9765625 27.1953125 C25.23038666 27.1924826 24.48421082 27.18965271 23.71542358 27.18673706 C21.35178012 27.17561687 18.98852732 27.15052821 16.625 27.125 C15.01432842 27.11495962 13.40365085 27.10583562 11.79296875 27.09765625 C7.86171063 27.0774129 3.93128829 27.03825037 0 27 C0 18.09 0 9.18 0 0 Z " fill="#11036B" transform="translate(1049,1113)"/>
<path d="M0 0 C4.684699 2.08403432 7.42501011 4.57160353 9.65234375 9.3046875 C10.3059637 14.53364711 9.52484599 17.90018407 6.65234375 22.3046875 C2.46154404 26.45078535 -0.69576791 28.46399641 -6.59765625 28.6171875 C-11.68702994 28.56396529 -14.47147499 27.80270474 -18.34765625 24.3046875 C-21.36209009 20.88289774 -23.21173089 18.6911262 -23.66015625 14.1171875 C-23.17565762 8.20630421 -21.0361282 4.91079497 -16.78515625 0.8671875 C-11.27574974 -1.63708819 -5.80962415 -1.72065408 0 0 Z " fill="#F9F8FB" transform="translate(1167.34765625,1078.6953125)"/>
<path d="M0 0 C4.684699 2.08403432 7.42501011 4.57160353 9.65234375 9.3046875 C10.3059637 14.53364711 9.52484599 17.90018407 6.65234375 22.3046875 C2.46154404 26.45078535 -0.69576791 28.46399641 -6.59765625 28.6171875 C-11.68702994 28.56396529 -14.47147499 27.80270474 -18.34765625 24.3046875 C-21.36209009 20.88289774 -23.21173089 18.6911262 -23.66015625 14.1171875 C-23.17565762 8.20630421 -21.0361282 4.91079497 -16.78515625 0.8671875 C-11.27574974 -1.63708819 -5.80962415 -1.72065408 0 0 Z " fill="#F9F8FB" transform="translate(824.34765625,1078.6953125)"/>
<path d="M0 0 C4.87995132 2.26569169 7.63239735 5.17373306 10 10 C10.81940711 14.65724245 10.45876794 18.02741196 8.4375 22.3125 C4.76209317 26.36487164 1.70169561 28.61516545 -3.6875 29.3828125 C-9.64878178 29.62579953 -13.35995597 29.06003852 -18 25 C-18.598125 24.484375 -19.19625 23.96875 -19.8125 23.4375 C-22.612997 20.04742468 -22.44858656 15.76664108 -22.41796875 11.578125 C-21.72382199 7.29647208 -19.30825045 4.67088109 -16 2 C-11.12435457 -1.09136668 -5.561857 -0.59644579 0 0 Z " fill="#FAFAFC" transform="translate(989,1078)"/>
</svg>
